<svg width="20" height="21" viewBox="0 0 20 21" fill="none" xmlns="http://www.w3.org/2000/svg">
<path d="M16.184 1.6192C16.1558 1.44999 16.0917 1.2888 15.9959 1.14648C15.9001 1.00416 15.7749 0.884034 15.6288 0.794192C15.4827 0.704351 15.319 0.646885 15.1488 0.625668C14.9785 0.604452 14.8057 0.619979 14.642 0.671202L6.24201 3.2956C5.99776 3.37185 5.78428 3.52418 5.63273 3.73035C5.48118 3.93651 5.3995 4.18573 5.39961 4.4416V14.2C4.85897 13.7945 4.19725 13.5835 3.52167 13.601C2.84609 13.6186 2.19622 13.8637 1.67737 14.2967C1.15852 14.7298 0.80107 15.3253 0.662943 15.9868C0.524816 16.6484 0.614101 17.3372 0.916331 17.9416C1.21856 18.5461 1.71603 19.0308 2.32814 19.3172C2.94025 19.6037 3.63114 19.675 4.28887 19.5197C4.9466 19.3645 5.53264 18.9917 5.95203 18.4618C6.37143 17.9318 6.59961 17.2758 6.59961 16.6V8.0416L14.9996 5.416V8.8276C15.4112 8.8636 15.8132 8.9392 16.1996 9.0484V1.816C16.1996 1.7488 16.1936 1.684 16.184 1.6192ZM19.7996 15.4C19.7996 16.8322 19.2307 18.2057 18.218 19.2184C17.2053 20.2311 15.8318 20.8 14.3996 20.8C12.9674 20.8 11.5939 20.2311 10.5812 19.2184C9.56854 18.2057 8.99961 16.8322 8.99961 15.4C8.99961 13.9678 9.56854 12.5943 10.5812 11.5816C11.5939 10.5689 12.9674 10 14.3996 10C15.8318 10 17.2053 10.5689 18.218 11.5816C19.2307 12.5943 19.7996 13.9678 19.7996 15.4ZM17.084 14.878L13.4912 12.898C13.3999 12.8475 13.297 12.8217 13.1927 12.8231C13.0884 12.8245 12.9862 12.8531 12.8963 12.906C12.8064 12.959 12.7319 13.0345 12.6801 13.125C12.6282 13.2156 12.6009 13.3181 12.6008 13.4224V17.3824C12.6007 17.4868 12.6279 17.5895 12.6796 17.6802C12.7314 17.7709 12.8059 17.8466 12.8958 17.8997C12.9857 17.9527 13.088 17.9814 13.1924 17.9829C13.2968 17.9844 13.3998 17.9585 13.4912 17.908L17.084 15.928C17.1778 15.8761 17.256 15.8001 17.3104 15.7077C17.3648 15.6154 17.3935 15.5102 17.3935 15.403C17.3935 15.2958 17.3648 15.1906 17.3104 15.0983C17.256 15.0059 17.1778 14.9299 17.084 14.878Z" fill="#BABABA"/>
</svg>
